<svg xmlns="http://www.w3.org/2000/svg" width="800" height="200" viewBox="0 0 800 200">
  <rect x="30" y="50" width="106" height="130" rx="8" fill="#161b22" stroke="#ffa657" stroke-width="1.5"/><rect x="30" y="50" width="106" height="3" rx="2" fill="#ffa657"/><text x="83" y="74" text-anchor="middle" font-family="Segoe UI,system-ui,sans-serif" font-size="13" font-weight="700" fill="#ffa657">Math</text><line x1="42" y1="84" x2="124" y2="84" stroke="#30363d" stroke-width="0.5"/><circle cx="50" cy="104" r="3" fill="#ffa657" opacity="0.7"/><text x="60" y="108" font-family="Segoe UI,system-ui,sans-serif" font-size="11" fill="#c9d1d9">Stats</text><circle cx="50" cy="130" r="3" fill="#ffa657" opacity="0.7"/><text x="60" y="134" font-family="Segoe UI,system-ui,sans-serif" font-size="11" fill="#c9d1d9">LinAlg</text><circle cx="50" cy="156" r="3" fill="#ffa657" opacity="0.7"/><text x="60" y="160" font-family="Segoe UI,system-ui,sans-serif" font-size="11" fill="#c9d1d9">Optim</text>
  <rect x="156" y="50" width="106" height="130" rx="8" fill="#161b22" stroke="#79c0ff" stroke-width="1.5"/><rect x="156" y="50" width="106" height="3" rx="2" fill="#79c0ff"/><text x="209" y="74" text-anchor="middle" font-family="Segoe UI,system-ui,sans-serif" font-size="13" font-weight="700" fill="#79c0ff">Data</text><line x1="168" y1="84" x2="250" y2="84" stroke="#30363d" stroke-width="0.5"/><circle cx="176" cy="104" r="3" fill="#79c0ff" opacity="0.7"/><text x="186" y="108" font-family="Segoe UI,system-ui,sans-serif" font-size="11" fill="#c9d1d9">SQL</text><circle cx="176" cy="130" r="3" fill="#79c0ff" opacity="0.7"/><text x="186" y="134" font-family="Segoe UI,system-ui,sans-serif" font-size="11" fill="#c9d1d9">ETL</text><circle cx="176" cy="156" r="3" fill="#79c0ff" opacity="0.7"/><text x="186" y="160" font-family="Segoe UI,system-ui,sans-serif" font-size="11" fill="#c9d1d9">VecDB</text>
  <rect x="282" y="50" width="106" height="130" rx="8" fill="#161b22" stroke="#533483" stroke-width="1.5"/><rect x="282" y="50" width="106" height="3" rx="2" fill="#533483"/><text x="335" y="74" text-anchor="middle" font-family="Segoe UI,system-ui,sans-serif" font-size="13" font-weight="700" fill="#533483">ML</text><line x1="294" y1="84" x2="376" y2="84" stroke="#30363d" stroke-width="0.5"/><circle cx="302" cy="104" r="3" fill="#533483" opacity="0.7"/><text x="312" y="108" font-family="Segoe UI,system-ui,sans-serif" font-size="11" fill="#c9d1d9">XGBoost</text><circle cx="302" cy="130" r="3" fill="#533483" opacity="0.7"/><text x="312" y="134" font-family="Segoe UI,system-ui,sans-serif" font-size="11" fill="#c9d1d9">PyTorch</text><circle cx="302" cy="156" r="3" fill="#533483" opacity="0.7"/><text x="312" y="160" font-family="Segoe UI,system-ui,sans-serif" font-size="11" fill="#c9d1d9">NLP/CV</text>
  <rect x="408" y="50" width="106" height="130" rx="8" fill="#161b22" stroke="#6366f1" stroke-width="1.5"/><rect x="408" y="50" width="106" height="3" rx="2" fill="#6366f1"/><text x="461" y="74" text-anchor="middle" font-family="Segoe UI,system-ui,sans-serif" font-size="13" font-weight="700" fill="#6366f1">AI</text><line x1="420" y1="84" x2="502" y2="84" stroke="#30363d" stroke-width="0.5"/><circle cx="428" cy="104" r="3" fill="#6366f1" opacity="0.7"/><text x="438" y="108" font-family="Segoe UI,system-ui,sans-serif" font-size="11" fill="#c9d1d9">RAG</text><circle cx="428" cy="130" r="3" fill="#6366f1" opacity="0.7"/><text x="438" y="134" font-family="Segoe UI,system-ui,sans-serif" font-size="11" fill="#c9d1d9">Agents</text><circle cx="428" cy="156" r="3" fill="#6366f1" opacity="0.7"/><text x="438" y="160" font-family="Segoe UI,system-ui,sans-serif" font-size="11" fill="#c9d1d9">LLM</text>
  <rect x="534" y="50" width="106" height="130" rx="8" fill="#161b22" stroke="#818cf8" stroke-width="1.5"/><rect x="534" y="50" width="106" height="3" rx="2" fill="#818cf8"/><text x="587" y="74" text-anchor="middle" font-family="Segoe UI,system-ui,sans-serif" font-size="13" font-weight="700" fill="#818cf8">Prod</text><line x1="546" y1="84" x2="628" y2="84" stroke="#30363d" stroke-width="0.5"/><circle cx="554" cy="104" r="3" fill="#818cf8" opacity="0.7"/><text x="564" y="108" font-family="Segoe UI,system-ui,sans-serif" font-size="11" fill="#c9d1d9">FastAPI</text><circle cx="554" cy="130" r="3" fill="#818cf8" opacity="0.7"/><text x="564" y="134" font-family="Segoe UI,system-ui,sans-serif" font-size="11" fill="#c9d1d9">Docker</text><circle cx="554" cy="156" r="3" fill="#818cf8" opacity="0.7"/><text x="564" y="160" font-family="Segoe UI,system-ui,sans-serif" font-size="11" fill="#c9d1d9">MLOps</text>
  <rect x="660" y="50" width="106" height="130" rx="8" fill="#161b22" stroke="#3fb950" stroke-width="1.5"/><rect x="660" y="50" width="106" height="3" rx="2" fill="#3fb950"/><text x="713" y="74" text-anchor="middle" font-family="Segoe UI,system-ui,sans-serif" font-size="13" font-weight="700" fill="#3fb950">Impact</text><line x1="672" y1="84" x2="754" y2="84" stroke="#30363d" stroke-width="0.5"/><circle cx="680" cy="104" r="3" fill="#3fb950" opacity="0.7"/><text x="690" y="108" font-family="Segoe UI,system-ui,sans-serif" font-size="11" fill="#c9d1d9">BFSI</text><circle cx="680" cy="130" r="3" fill="#3fb950" opacity="0.7"/><text x="690" y="134" font-family="Segoe UI,system-ui,sans-serif" font-size="11" fill="#c9d1d9">Health</text><circle cx="680" cy="156" r="3" fill="#3fb950" opacity="0.7"/><text x="690" y="160" font-family="Segoe UI,system-ui,sans-serif" font-size="11" fill="#c9d1d9">Supply</text>
  <line x1="138" y1="115" x2="154" y2="115" stroke="#8b949e" stroke-width="1.5" stroke-dasharray="3,3"/><polygon points="154,111 160,115 154,119" fill="#8b949e"/>
  <line x1="264" y1="115" x2="280" y2="115" stroke="#8b949e" stroke-width="1.5" stroke-dasharray="3,3"/><polygon points="280,111 286,115 280,119" fill="#8b949e"/>
  <line x1="390" y1="115" x2="406" y2="115" stroke="#8b949e" stroke-width="1.5" stroke-dasharray="3,3"/><polygon points="406,111 412,115 406,119" fill="#8b949e"/>
  <line x1="516" y1="115" x2="532" y2="115" stroke="#8b949e" stroke-width="1.5" stroke-dasharray="3,3"/><polygon points="532,111 538,115 532,119" fill="#8b949e"/>
  <line x1="642" y1="115" x2="658" y2="115" stroke="#8b949e" stroke-width="1.5" stroke-dasharray="3,3"/><polygon points="658,111 664,115 658,119" fill="#8b949e"/>
</svg>
